PathFileType	4	(X/Y/Z)	C:/Users/opensim2020/Desktop/walking_exp_matlab/subject01_walking09_straight_03.trc																																																																																																																															
DataRate	CameraRate	NumFrames	NumMarkers	Units	OrigDataRate	OrigDataStartFrame	OrigNumFrames																																																																																																																											
100	100	7	43	mm	100	2844	348																																																																																																																											
Frame#	Time	LFHD			RFHD			LBHD			RBHD			C7			T10			CLAV			STRN			RBAK			LSHO			LUPA			LELB			LFRM			LWRA			LWRB			LFIN			RSHO			RUPA			RELB			RFRM			RWRA			RWRB			RFIN			LASI			RASI			LPSI			RPSI			LTHI			LKNE			LTIB			LANK			LHEE			LTOE			RTHI			RKNE			RTIB			RANK			RHEE			RTOE			*39			*40			*41			*42		
		X1	Y1	Z1	X2	Y2	Z2	X3	Y3	Z3	X4	Y4	Z4	X5	Y5	Z5	X6	Y6	Z6	X7	Y7	Z7	X8	Y8	Z8	X9	Y9	Z9	X10	Y10	Z10	X11	Y11	Z11	X12	Y12	Z12	X13	Y13	Z13	X14	Y14	Z14	X15	Y15	Z15	X16	Y16	Z16	X17	Y17	Z17	X18	Y18	Z18	X19	Y19	Z19	X20	Y20	Z20	X21	Y21	Z21	X22	Y22	Z22	X23	Y23	Z23	X24	Y24	Z24	X25	Y25	Z25	X26	Y26	Z26	X27	Y27	Z27	X28	Y28	Z28	X29	Y29	Z29	X30	Y30	Z30	X31	Y31	Z31	X32	Y32	Z32	X33	Y33	Z33	X34	Y34	Z34	X35	Y35	Z35	X36	Y36	Z36	X37	Y37	Z37	X38	Y38	Z38	X39	Y39	Z39	X40	Y40	Z40	X41	Y41	Z41	X42	Y42	Z42	X43	Y43	Z43
																																																																																																																																		
1	0	-1127.05334	1678.01477	-1047.59045	-1113.21106	1687.81519	-933.84943	-1227.04138	1602.92676	-1038.07898	-1214.67529	1610.56641	-918.11572	-1232.8103	1432.88062	-992.98676	-1267.97705	1140.19299	-981.8493	-1087.46021	1367.01379	-998.21423	-1046.5896	1209.6261	-1007.24664	-1282.99768	1238.46729	-911.39526	-1155.39099	1396.61169	-1156.36792	-1197.89429	1215.92407	-1240.79956	-1211.49292	1064.15564	-1246.30066	-1169.09351	956.26941	-1268.0083	-1088.71423	843.93427	-1244.3501	-1141.46826	836.95966	-1271.85168	-1091.06348	769.12189	-1279.13794	-1143.60413	1390.69934	-844.41791	-1181.50903	1188.18274	-739.65973	-1166.48779	1062.96252	-735.49335	-1110.81201	953.82642	-710.85345	-1007.09259	859.44525	-741.47137	-1045.55859	850.40405	-698.26221	-991.14319	783.16602	-705.77777	-1100.93689	935.38617	-1096.98669	-1095.13379	930.32904	-879.2229	-1285.77722	945.71069	-1041.77771	-1281.05957	947.47668	-896.74609	-1052.62244	620.98199	-1172.54456	-1031.41101	488.00977	-1161.92603	-1108.73071	315.90219	-1170.948	-1164.34082	103.27523	-1125.69604	-1200.76074	74.6773	-1063.99414	-1035.92651	47.94307	-1163.7262	-1152.13708	596.58295	-838.40179	-1147.1825	438.52243	-870.02368	-1201.9978	269.68765	-868.17096	-1228.67981	67.72697	-927.59424	-1277.755	29.64995	-978.43518	-1087.71509	30.1841	-930.64172	-1134.61755	1716.98364	-956.70197	1973.13196	1023.40393	-3101.90674	2012.46204	1021.96368	-3140.67432	NaN	NaN	NaN
2	0.01	-1121.58069	1677.80286	-1047.55762	-1107.96265	1687.47681	-934.84631	-1221.65295	1602.7262	-1038.16626	-1209.58057	1610.40442	-918.1908	-1227.52612	1432.77002	-992.84509	-1263.12866	1140.21204	-981.76697	-1082.30164	1366.76294	-998.38721	-1041.57385	1209.31323	-1006.91016	-1278.04565	1238.57983	-911.16364	-1150.14417	1396.31787	-1156.29053	-1190.41223	1214.51477	-1241.32141	-1207.35803	1063.86475	-1245.55591	-1165.89722	955.58185	-1267.36182	-1086.66431	842.63611	-1243.68726	-1139.46948	836.18201	-1271.13281	-1089.75684	767.74762	-1278.50513	-1138.2616	1390.70349	-844.31055	-1176.07983	1188.18628	-739.35376	-1160.94189	1062.88562	-734.86902	-1104.03381	954.38934	-710.65625	-998.96472	861.42303	-741.63104	-1037.23218	851.74207	-698.4118	-982.07983	785.32074	-706.06598	-1096.01257	935.34839	-1096.76379	-1090.82336	929.95856	-879.03229	-1281.0033	945.47125	-1042.13062	-1276.70972	947.15344	-897.13794	-1046.66199	621.27972	-1172.50659	-1024.43176	488.44409	-1161.44031	-1096.4541	313.9874	-1171.07092	-1145.07471	99.31562	-1126.1554	-1181.40857	69.82393	-1065.00513	-1014.01508	47.93834	-1162.19971	-1148.82837	596.15802	-838.5614	-1145.09167	438.16351	-870.06409	-1200.5946	269.75955	-868.15216	-1228.49744	67.80427	-927.65125	-1277.4469	29.46145	-978.5426	-1087.74634	30.18244	-930.6781	-1129.30859	1716.87097	-956.67371	1973.17236	1023.47363	-3101.95313	2012.5011	1022.16693	-3140.64429	NaN	NaN	NaN
3	0.02	-1116.26282	1677.57971	-1047.73096	-1102.73962	1687.17004	-935.05334	-1216.3783	1602.49829	-1038.35071	-1204.36804	1610.22668	-918.39972	-1222.14819	1432.46936	-992.83295	-1258.224	1140.15015	-981.83344	-1077.06238	1366.50549	-997.6955	-1036.52551	1209.00659	-1006.62994	-1273.04456	1238.578	-911.00964	-1144.92615	1396.00964	-1156.2699	-1185.72668	1214.09082	-1240.99939	-1203.21814	1063.69592	-1244.84302	-1162.76221	955.1626	-1266.60828	-1084.47498	841.31213	-1243.05884	-1137.39551	835.50842	-1270.64966	-1088.1936	766.25739	-1277.28503	-1132.91748	1390.38574	-844.2771	-1170.6488	1188.21045	-739.05469	-1155.45703	1062.88647	-734.35632	-1097.50537	955.02661	-710.44293	-991.04742	863.34222	-741.96356	-1029.45715	853.08307	-698.72388	-972.86725	787.46973	-706.55933	-1091.02075	935.34198	-1096.62842	-1086.42236	929.61932	-878.89679	-1276.23694	945.24579	-1042.49988	-1272.35168	946.86621	-897.48627	-1040.8396	621.5437	-1172.52942	-1017.94342	488.68198	-1161.0116	-1084.41504	312.18668	-1171.24976	-1125.83582	95.74371	-1126.71729	-1161.92749	65.37119	-1066.03662	-992.52118	48.37116	-1160.84973	-1145.57495	595.81268	-838.69458	-1142.27856	437.72818	-870.21747	-1199.16528	269.67923	-868.24493	-1228.93872	68.20176	-927.72388	-1277.31104	29.45237	-978.63757	-1087.57227	30.08699	-930.71661	-1123.9635	1716.66333	-956.78442	1973.04041	1023.32135	-3101.9043	2012.47925	1022.04407	-3140.76904	NaN	NaN	NaN
4	0.03	-1110.84253	1677.24243	-1047.93286	-1097.53516	1686.95471	-935.13141	-1210.93262	1602.20239	-1038.67261	-1199.19141	1610.01685	-918.66101	-1216.80188	1432.27722	-992.86853	-1253.29956	1139.974	-981.95355	-1071.62659	1366.23206	-998.25403	-1031.46069	1208.68005	-1006.44952	-1267.99878	1238.56335	-910.89874	-1139.71082	1395.68811	-1156.31921	-1181.00427	1213.66296	-1240.7373	-1198.97913	1063.40784	-1244.19873	-1159.32703	954.44885	-1266.02539	-1082.13977	839.95856	-1242.52722	-1135.22083	834.73132	-1269.95874	-1086.72534	765.11853	-1276.80249	-1127.46155	1390.26636	-844.39075	-1165.13831	1188.16174	-738.84406	-1149.86987	1062.80298	-733.88995	-1090.87268	955.41772	-710.41986	-983.18872	865.20233	-742.26587	-1020.97662	854.27362	-699.00079	-963.91437	789.47003	-707.10919	-1085.98706	935.18622	-1096.53552	-1082.0188	929.23651	-878.76306	-1271.32605	944.99341	-1042.88184	-1268.53833	947.02563	-897.79425	-1035.52161	621.46906	-1172.56006	-1011.73822	488.78949	-1160.59045	-1072.60254	310.34717	-1171.41724	-1106.74731	92.4189	-1127.39392	-1142.80493	61.20576	-1067.25342	-971.19141	49.44593	-1159.27637	-1142.00769	595.24609	-839.00317	-1139.9668	437.38794	-870.37408	-1197.90125	269.76157	-868.28394	-1228.64185	68.19315	-927.74554	-1277.21301	29.53368	-978.71167	-1087.5896	30.04673	-930.77094	-1118.95398	1716.03833	-957.21844	1973.06885	1023.40924	-3101.74268	2012.44678	1022.00623	-3140.73315	NaN	NaN	NaN
5	0.04	-1105.31372	1676.87463	-1048.15637	-1092.08679	1686.77124	-934.64301	-1205.50256	1601.91309	-1038.98267	-1193.95215	1609.79871	-918.96667	-1211.60791	1432.23035	-992.98218	-1248.37952	1139.83081	-982.14398	-1066.32703	1365.95508	-998.3288	-1026.32495	1208.33789	-1006.32904	-1262.85205	1238.50232	-910.85986	-1134.36035	1395.328	-1156.40247	-1176.18726	1213.20789	-1240.58154	-1194.53967	1063.09363	-1243.6554	-1155.92883	953.96637	-1265.4823	-1079.67444	838.71924	-1242.10315	-1132.75073	833.87555	-1269.60132	-1085.099	763.93921	-1276.74268	-1122.10681	1390.13599	-844.50922	-1159.5686	1188.14258	-738.67993	-1144.26428	1062.77332	-733.50531	-1083.4718	955.74231	-710.33557	-975.5011	866.93011	-742.7663	-1013.02588	855.57776	-699.34497	-955.29315	791.48584	-707.59869	-1080.88538	935.05219	-1096.52197	-1077.474	928.90063	-878.72101	-1266.34644	944.70447	-1043.29089	-1263.20288	946.33356	-898.276	-1030.44666	621.50262	-1172.41882	-1005.84149	488.76248	-1160.19751	-1061.04053	308.73395	-1171.52612	-1087.32446	89.43808	-1128.10107	-1123.02832	56.9916	-1068.25342	-950.33691	50.80331	-1158.36633	-1138.98596	595.19501	-839.03693	-1137.80273	436.98666	-870.48608	-1196.87976	269.68408	-868.42218	-1227.6604	67.77106	-927.99304	-1277.49646	29.90557	-978.6842	-1087.39063	29.97181	-930.8429	-1113.349	1715.97522	-957.28461	1973.19836	1023.38898	-3101.89111	2012.53491	1022.00287	-3140.7063	NaN	NaN	NaN
6	0.05	-1099.82251	1676.45935	-1048.448	-1086.79272	1686.479	-934.92615	-1200.0271	1601.59387	-1039.36768	-1188.6958	1609.5592	-919.38757	-1206.30322	1431.94617	-993.15955	-1243.37195	1139.66345	-982.36633	-1061.04993	1365.4873	-998.29742	-1021.1521	1207.8905	-1006.19537	-1257.67529	1238.40393	-910.87128	-1128.927	1394.90356	-1156.58508	-1174.16431	1213.84436	-1239.51514	-1190.00818	1062.67163	-1243.172	-1152.31616	953.39014	-1265.0022	-1076.94104	837.40533	-1241.76001	-1130.16614	832.95392	-1268.97754	-1083.0321	762.57977	-1275.9895	-1116.80591	1390.01062	-844.67603	-1153.9856	1188.1792	-738.50653	-1138.49084	1062.71143	-733.18195	-1076.68372	956.15723	-710.30133	-967.93323	868.5863	-743.27289	-1005.17401	856.70978	-699.70209	-946.67938	793.35931	-708.18384	-1075.67908	934.95978	-1096.5918	-1072.93079	928.47144	-878.71423	-1261.3396	944.50977	-1043.63257	-1258.42163	945.93262	-898.65674	-1025.39771	621.40961	-1172.45618	-1000.26733	488.58682	-1159.78687	-1049.74255	307.13568	-1171.70825	-1068.28271	86.73212	-1128.58032	-1103.61169	53.38788	-1069.2428	-929.72937	52.19224	-1157.66394	-1135.68579	594.79657	-839.25244	-1135.9502	436.71548	-870.81726	-1194.96094	269.38586	-868.58679	-1227.52124	67.97673	-928.07373	-1277.48193	30.08128	-978.7616	-1087.30933	29.92647	-930.89142	-1107.93738	1715.40564	-957.61652	1973.08716	1023.48529	-3101.75415	2012.54651	1022.01239	-3140.68628	NaN	NaN	NaN
7	0.06	-1094.31458	1675.99768	-1048.98071	-1081.44885	1685.90759	-936.3139	-1194.57593	1601.24609	-1039.854	-1183.34302	1609.30127	-919.85767	-1200.88843	1431.66064	-993.43359	-1238.26892	1139.37231	-982.73303	-1055.69409	1365.10474	-998.48407	-1015.94135	1207.4707	-1006.16833	-1252.44922	1238.1875	-910.99652	-1123.5365	1394.44702	-1156.76233	-1166.13391	1212.09595	-1240.25708	-1185.46057	1062.28772	-1242.77026	-1148.59705	952.77832	-1264.62781	-1074.15051	836.12695	-1241.48975	-1127.39343	832.24567	-1268.81042	-1080.87012	761.26166	-1275.651	-1111.521	1389.79236	-844.96906	-1148.44287	1188.19373	-738.35681	-1132.80823	1062.70398	-732.92975	-1069.96472	956.5119	-710.4054	-960.38348	870.14203	-743.81097	-997.75085	857.75494	-700.30774	-938.14154	795.1524	-708.88208	-1070.54089	934.70349	-1096.59741	-1068.052	928.11298	-878.82263	-1256.21216	944.18622	-1044.02332	-1253.65222	945.73389	-898.97711	-1020.79041	620.89764	-1172.49866	-994.93713	488.26361	-1159.48401	-1038.72693	305.6369	-1171.92297	-1049.45801	84.55717	-1129.43359	-1083.40881	49.85406	-1069.77515	-909.45569	53.70419	-1157.0708	-1132.40198	594.42877	-839.50848	-1133.33521	436.25449	-870.82159	-1193.59961	269.34192	-868.64532	-1227.66711	68.09042	-928.10724	-1277.72351	30.61803	-978.83484	-1087.20447	29.8699	-930.94379	-1102.39099	1715.16833	-958.13922	1973.0896	1023.45276	-3101.84619	2012.41956	1021.96112	-3140.69971	NaN	NaN	NaN
